<?xml version="1.0" standalone="no"?>
<!DOCTYPE svg PUBLIC "-//W3C//DTD SVG 20010904//EN"
 "http://www.w3.org/TR/2001/REC-SVG-20010904/DTD/svg10.dtd">
<svg version="1.0" xmlns="http://www.w3.org/2000/svg"
 width="165.000000pt" height="165.000000pt" viewBox="0 0 165.000000 165.000000"
 preserveAspectRatio="xMidYMid meet">
<metadata>
Created by potrace 1.11, written by Peter Selinger 2001-2013
</metadata>
<g transform="translate(0.000000,165.000000) scale(0.100000,-0.100000)"
fill="#000000" stroke="none">
<path d="M160 1637 c-48 -15 -133 -102 -147 -152 -17 -56 -18 -1245 -1 -1312
16 -64 94 -144 158 -161 34 -10 197 -12 675 -10 697 3 662 0 733 69 70 68 67
35 70 734 2 478 0 641 -10 675 -17 64 -97 142 -160 158 -64 16 -1267 15 -1318
-1z"/>
</g>
</svg>
